<svg width="232" height="232" viewBox="0 0 232 232" fill="none" xmlns="http://www.w3.org/2000/svg">
<g clip-path="url(#clip0)">
<path d="M89.006 24.7367C21.6165 37.9422 -7.59707 108.611 1.69749 178.285C10.992 247.96 173.105 239.456 203.499 191.681C233.893 143.907 239.613 84.3081 210.871 50.2679C182.129 16.2277 156.395 11.5312 89.006 24.7367Z" fill="#FEEBEF"/>
<g clip-path="url(#clip1)">
<path d="M74.4259 184.853C74.4259 184.853 46.0981 95.0621 124.19 87.3141C124.19 87.3141 190.779 80.1366 192.68 130.855C192.68 130.855 186.406 229.535 74.4259 184.853Z" fill="#E4002B"/>
<path d="M184.991 231.858C183.816 223.412 181.565 215.062 179.803 206.711C177.992 197.979 176.132 189.247 174.321 180.514C174.125 179.656 173.684 179.083 173.097 178.749C172.167 177.27 170.209 176.268 168.104 177.174C139.372 190.249 105.697 191.251 76.0834 180.371C72.4614 179.035 70.5035 183.473 72.3635 186.002C72.3145 186.193 72.2656 186.431 72.2656 186.67C71.9229 202.464 71.2377 218.259 71.2377 234.005C71.2377 236.964 71.7761 239.97 74.1256 242.069C76.5729 244.264 80.0971 244.741 83.2297 245.362C90.8166 246.841 98.4523 247.938 106.137 248.654C121.8 250.133 137.561 249.943 153.175 248.129C160.615 247.27 168.202 246.316 175.446 244.407C181.858 242.833 185.921 238.634 184.991 231.858Z" fill="white"/>
<path d="M40.8993 146.957C40.8993 146.957 47.3596 177.414 65.015 173.562C73.5714 171.695 67.4875 162.786 73.5714 141.823L85.4529 104.664L65.015 120.35L40.8993 146.957Z" fill="#C599C6"/>
<path d="M127.945 97.3437C127.469 91.4971 126.313 81.7051 126.313 79.3285C129.926 78.4253 128.42 73.3868 127.945 71.9132C127.279 69.7267 125.045 65.0684 124.522 63.5949C124 62.2164 123.524 60.6953 122.194 59.8872C119.912 58.4612 116.347 58.4612 113.733 58.7464C110.834 59.0316 107.839 59.9348 105.368 61.5034C102.991 63.0245 100.948 65.3061 100.615 68.2056C100.472 69.5366 100.758 70.7249 101.185 71.9132C100.52 71.8657 99.8069 72.0558 99.094 72.4836C95.9095 74.4325 99.2841 78.1877 101.518 79.3285C102.183 79.6612 102.944 79.8038 103.609 80.1365C104.37 80.4693 104.275 81.1347 104.227 81.8953C104.085 83.8917 103.847 85.8881 103.657 87.8845C103.419 90.1661 103.134 93.0657 102.896 95.9177C102.516 99.7679 105.13 103.238 108.885 104.046L118.249 105.947C123.572 107.041 128.42 102.715 127.945 97.3437Z" fill="#C599C6"/>
<path d="M121.053 65.9715C120.72 65.0209 119.77 64.4505 118.771 64.498C116.728 64.6406 114.921 64.8783 111.404 65.9715C109.075 66.7321 108.315 67.2074 109.931 69.3464C111.547 71.4854 114.304 74.1473 118.771 72.959C122.764 71.9132 121.861 68.1581 121.053 65.9715Z" fill="#771212"/>
<path d="M107.745 65.8765C107.697 65.0684 107.649 64.2128 108.077 63.4998C108.267 63.1671 108.553 63.072 108.885 63.2146C109.408 63.4523 109.741 63.9752 110.216 64.3554C110.549 64.6406 110.929 64.0227 110.549 63.7375C110.596 63.785 110.359 63.5474 110.311 63.4998C110.169 63.3572 110.026 63.1671 109.836 63.072C109.503 62.7868 109.075 62.5016 108.6 62.4541C106.984 62.359 106.984 64.8308 107.032 65.8765C107.079 66.3043 107.745 66.3043 107.745 65.8765Z" fill="#771212"/>
<path d="M112.545 63.2145C112.498 62.7391 112.212 61.6934 112.783 61.4082C113.496 61.0279 114.019 62.0737 114.256 62.549C114.446 62.9293 115.064 62.5965 114.874 62.2163C114.446 61.4082 113.733 60.41 112.688 60.7427C111.642 61.0755 111.832 62.4064 111.927 63.2145C111.927 63.6423 112.593 63.6898 112.545 63.2145Z" fill="#771212"/>
<path d="M97.8583 67.4451C98.1435 69.1563 97.2879 72.959 98.999 72.6738C98.999 72.6738 100.805 69.9644 103.895 73.1966C104.417 70.0594 103.467 66.9222 102.516 63.9276C102.469 63.8325 102.421 63.6899 102.326 63.6424C102.183 63.5473 101.993 63.6424 101.851 63.7375C100.33 64.7357 98.999 65.924 97.9058 67.35C97.8583 67.3976 97.9058 67.4926 97.9533 67.4926C98.0009 67.4926 98.0009 67.3976 97.9533 67.3976" fill="#771212"/>
<path d="M123.857 62.5491C115.587 54.5635 104.75 60.8854 99.9495 68.2056C99.902 68.2531 97.7631 71.0101 97.7156 70.915L96.1947 65.7814C95.8619 64.3554 94.4836 56.4173 101.708 52.7572C105.986 50.6182 113.686 49.9527 118.676 51.8541C121.005 52.8047 125.996 64.5931 123.857 62.5491Z" fill="#FF9595"/>
<path d="M63.399 62.9769C65.5854 63.88 67.7718 64.7832 69.9107 65.6863C69.9582 63.3572 69.9582 61.028 70.0057 58.6513C72.097 60.2675 74.2359 61.9312 76.3272 63.5473C76.755 60.9805 76.6124 58.3661 75.9945 55.8469C77.6105 57.2729 79.4642 58.4137 81.4604 59.1742C82.0308 57.1303 82.2684 55.0388 82.1734 52.8998C88.3523 59.1742 92.3923 67.35 94.6262 75.906C96.8601 84.4621 107.644 120.82 89.9074 128.754C83.7286 125.76 76.5173 129.014 69.7681 130.155C68.9601 123.6 72.002 100.243 75.1865 99.1499C75.7093 98.9598 74.5686 98.1993 74.426 97.6289C72.8575 90.3562 71.3365 83.0361 69.7681 75.7634C68.9601 71.8657 67.8669 67.5401 64.5398 65.3536" fill="#FFC4C0"/>
<path d="M143.116 84.1451C145.001 83.5421 146.886 82.8887 148.77 82.2857C147.497 80.8282 146.223 79.3205 144.95 77.8631C147.191 77.7123 149.432 77.6118 151.674 77.4611C150.502 75.6518 148.974 74.0436 147.191 72.8375C148.974 72.8375 150.808 72.5359 152.489 71.9329C151.725 70.3749 150.706 68.9175 149.483 67.6108C156.869 68.1637 163.95 71.0785 170.062 75.1493C176.175 79.22 181.421 84.5472 186.057 90.2261C180.504 91.7338 175.411 94.9502 171.743 99.3728C171.438 99.7748 171.03 100.227 170.521 100.277C170.062 100.328 169.604 100.026 169.247 99.7246C164.255 96.0056 159.263 92.2866 154.272 88.6179C151.572 86.6077 148.516 84.5472 145.205 84.9492" fill="#FFC4C0"/>
<path d="M145.768 184.663C143.059 184.663 140.255 184.33 137.451 183.522C130.464 181.478 125.283 177.01 122.003 173.825C118.676 170.593 115.682 167.123 112.83 163.796C107.269 157.331 101.993 151.199 95.5293 148.68C89.6356 146.398 82.6962 147.254 77.8957 148.442C72.5248 149.726 67.2014 151.865 61.5454 154.099C59.9294 154.764 58.3133 155.382 56.6498 156C54.3684 156.903 50.5184 158.377 45.908 157.759C40.4896 157.046 36.6872 153.861 33.978 151.152C26.0405 143.261 21.953 134.8 21.7628 126.102C21.6202 117.783 25.1375 109.37 31.9818 101.812C38.7785 94.3491 52.5622 84.8899 63.8743 82.0379L68.7224 101.194C62.4009 102.81 51.6592 109.512 46.621 115.074C43.2464 118.781 41.4402 122.536 41.5353 125.674C41.6303 129.952 45.1 134.325 47.9993 137.224C48.2845 137.51 48.5222 137.747 48.7123 137.89C49.045 137.747 49.3777 137.652 49.5678 137.557C51.1363 136.939 52.7048 136.321 54.2258 135.703C60.2621 133.279 66.536 130.807 73.2853 129.191C84.2171 126.577 94.1034 126.91 102.659 130.237C113.733 134.515 122.241 141.788 128.8 149.44C131.509 152.578 134.361 155.62 137.07 158.187C139.922 160.944 142.204 162.465 144.295 163.083C148.24 164.223 152.28 163.796 155.987 162.37C160.17 160.753 163.307 159.185 165.826 157.426C174.714 151.294 180.323 139.363 180.18 127.1C179.99 113.315 174.096 102.62 161.548 93.4935L173.193 77.5222C190.922 90.4513 199.667 106.565 199.905 126.862C200.143 145.828 191.397 163.796 177.043 173.73C173.146 176.44 168.725 178.674 163.069 180.86C158.601 182.666 152.47 184.663 145.768 184.663Z" fill="#FFC4C0"/>
<path d="M50.2342 165.16C50.2342 165.16 34.3649 156.759 46.8586 124.675L58.0282 100.101C58.9788 97.819 59.5491 95.2394 59.6917 92.8152V87.681C59.9769 83.4505 62.0207 79.5185 64.7774 76.2863L69.6255 73.149L70.4335 78.9006C70.7186 79.7087 71.7643 79.9939 72.4297 79.4235C74.5686 77.5697 78.6561 74.2899 79.8919 74.48C80.9851 74.6701 81.6505 77.5221 79.8444 80.5643C76.85 85.6504 74.8537 86.5535 75.8043 91.5445C76.137 93.3983 76.0895 95.2997 75.6617 97.1535L62.0682 169.167" fill="#C599C6"/>
<path d="M121.528 158.139C115.444 157.188 109.551 153.671 104.94 148.3C101.708 144.497 99.6168 140.409 97.668 136.511C96.2421 133.707 94.9113 131.045 93.2478 128.763C87.1639 120.493 76.4222 115.644 66.536 116.69C58.9312 117.498 46.3083 130.602 42.6382 140.679C35.1546 135.688 33.5791 134.377 31.2158 131.52C32.0036 129.257 32.2891 126.554 34.7607 122.561C37.565 118.045 38.3056 117.44 41.7253 113.6C49.2351 106.993 57.5053 102.953 64.9675 102.145C79.5592 100.576 94.6737 107.088 103.99 118.829C105.558 117.546 107.127 116.167 108.743 114.693C114.256 109.798 119.96 104.759 127.612 101.859C135.359 98.9123 143.202 99.9581 149.095 104.616C154.989 109.275 157.888 117.07 156.795 125.389C156.082 130.855 153.801 136.369 149.856 142.358C142.964 152.768 134.076 158.472 124.903 158.424C123.762 158.424 122.621 158.329 121.528 158.139ZM111.499 131.52C112.878 134.23 114.256 136.749 116.015 138.793C118.676 141.93 122.051 143.784 124.95 143.784C130.701 143.784 135.787 137.129 137.688 134.23C140.397 130.142 141.918 126.624 142.299 123.44C142.726 120.207 141.871 117.498 140.017 116.024C138.211 114.598 135.644 114.408 132.745 115.502C127.612 117.45 123.144 121.396 118.439 125.579C116.205 127.623 113.923 129.619 111.499 131.52Z" fill="#FF9595"/>
<path d="M136.115 159.093C141.249 153.959 145.151 145.78 152.28 133.089C161.834 117.688 173.945 107.18 185.59 102.617C190.2 101.191 203.66 100.148 207.462 108.942C211.502 119.304 203.375 127.432 184.41 143.261C175.163 150.98 158.316 164.176 158.316 164.176L148.25 172.162C144.876 175.204 144.25 176.961 143.347 176.534C140.115 175.013 146.383 167.494 146.383 167.494C143.056 169.11 139.973 174.347 138.404 173.111C135.79 171.067 142.183 164.176 142.183 164.176C138.808 166.077 135.22 170.307 134.079 168.881C133.366 167.978 138.404 161.893 138.404 161.893C132.381 166.561 126.313 170.761 136.115 159.093Z" fill="#C599C6"/>
<path d="M101.946 79.0432C104.571 79.0432 106.699 76.9151 106.699 74.2899C106.699 71.6646 104.571 69.5365 101.946 69.5365C99.3209 69.5365 97.1929 71.6646 97.1929 74.2899C97.1929 76.9151 99.3209 79.0432 101.946 79.0432Z" fill="#C599C6"/>
<path d="M144.064 149.792C144.064 149.792 136.012 152.707 133.163 154.429C131.965 155.151 132.434 157.009 133.792 157.091C135.724 157.206 143.117 154.599 144.188 155.254" fill="#C599C6"/>
<path d="M111.642 130.38C109.978 126.197 107.792 122.299 105.035 118.734C104.655 118.259 103.847 118.734 104.227 119.209C106.936 122.727 109.123 126.529 110.739 130.665C110.976 131.188 111.88 130.95 111.642 130.38Z" fill="#D06060"/>
<path d="M91.5179 126.343C84.3626 125.925 77.2664 126.453 70.266 128.028C69.3241 128.256 69.4655 129.742 70.4074 129.514C77.3072 127.975 84.2662 127.383 91.321 127.838C92.2354 127.848 92.5009 126.385 91.5179 126.343Z" fill="#D06060"/>
<g clip-path="url(#clip2)">
<path d="M73.635 207.517C80.8757 225.697 86.989 244.383 91.7041 263.503C93.0234 268.808 101.4 265.19 100.086 259.973C95.2818 240.858 89.2571 222.167 82.0164 203.987C79.998 198.898 71.6165 202.428 73.635 207.517Z" fill="white"/>
<path d="M75.3841 210.176C89.7747 223.472 103.287 237.749 115.827 252.925C119.307 257.134 125.326 250.312 121.846 246.103C109.306 230.928 95.7938 216.65 81.4032 203.354C77.3739 199.665 71.3548 206.487 75.3841 210.176Z" fill="white"/>
<path d="M83.4171 192.441C80.172 191.642 76.0256 190.627 74.8955 190.289C72.5465 189.619 70.3918 188.449 68.1683 187.638C64.3567 186.248 60.5869 184.812 56.8121 183.287C49.5801 180.353 42.5007 176.965 35.6254 173.256C34.1577 172.448 32.3065 172.728 31.3691 174.246C26.9233 181.381 22.9824 188.8 19.593 196.543C18.9215 198.047 19.5695 199.3 20.7146 199.904C20.9485 200.113 21.313 200.271 21.6306 200.387C33.9767 204.95 47.4211 204.519 60.3636 204.649C62.2766 204.676 64.2781 204.699 66.1911 204.727C52.9392 212.57 40.2319 221.406 28.1945 231.094C27.0033 232.049 26.8955 233.299 27.3514 234.297C27.5782 235.173 28.2014 235.983 29.3784 236.363C41.6749 240.04 53.9245 243.675 66.2628 247.305C68.2523 247.906 70.0859 246.516 70.2845 244.505C71.564 230.833 74.6408 217.506 79.3895 204.665C81.1798 205.677 83.4103 205.821 85.4999 204.239" fill="white"/>
</g>
</g>
<path d="M125.003 79.9295L124.949 79.959C124.841 80.0181 121.935 81.1073 118.249 81.6702C113.357 82.3337 109.433 81.5685 106.943 79.4561C106.794 79.3131 106.808 79.0815 106.999 78.9202C107.191 78.7589 107.454 78.7269 107.603 78.8699C113.2 83.7098 124.618 79.3552 124.726 79.2961C124.965 79.2211 125.144 79.2914 125.238 79.4639C125.255 79.6228 125.218 79.8113 125.003 79.9295Z" fill="#771212"/>
<g clip-path="url(#clip3)">
<path fill-rule="evenodd" clip-rule="evenodd" d="M71.8875 117.062C72.1016 117.1 72.2442 117.305 72.2059 117.519C70.0347 129.659 67.8888 139.531 66.2853 146.369C65.4836 149.788 64.8175 152.448 64.3516 154.254C64.1187 155.157 63.9358 155.847 63.8111 156.311C63.7488 156.543 63.701 156.719 63.6687 156.837L63.6321 156.97L63.6198 157.014C63.6197 157.014 63.6195 157.015 63.2401 156.909C62.8607 156.803 62.8608 156.803 62.8608 156.803L62.8728 156.76L62.9089 156.629C62.9409 156.512 62.9883 156.338 63.0504 156.107C63.1744 155.645 63.3566 154.958 63.5888 154.058C64.0533 152.257 64.718 149.602 65.5184 146.189C67.119 139.363 69.2621 129.505 71.4304 117.38C71.4687 117.166 71.6733 117.024 71.8875 117.062ZM63.1343 157.289C62.9248 157.23 62.8023 157.013 62.8608 156.803L63.2401 156.909L63.6195 157.015C63.5611 157.225 63.3438 157.347 63.1343 157.289Z" fill="#771212"/>
</g>
<g clip-path="url(#clip4)">
<path d="M190.945 44.4027C189.671 41.1041 187.308 39.2574 184.612 37.7516C184.874 35.6383 185.143 33.4892 185.404 31.3759C187.236 31.6892 189.045 32.1098 190.867 32.6454C194.547 33.724 196.431 27.991 193.066 26.306C191.114 25.3316 188.872 24.6697 186.562 24.3299C187.116 21.7176 187.804 19.1712 188.77 16.721C189.86 14.0354 185.863 11.9923 184.773 14.6779C183.572 17.7138 182.762 20.8327 182.123 24.0252C181.709 24.0495 181.302 24.0381 180.887 24.0624C180.409 24.0359 180.409 24.089 179.931 24.0624C179.625 24.0624 176.75 24.6802 177.517 24.5077C176.816 24.6582 176.149 24.8162 175.511 25.0175C170.126 26.7185 167.08 32.841 171.044 37.4947C172.741 39.4994 175.177 40.6511 177.521 41.7085C178.096 41.9799 178.75 42.2307 179.397 42.5172C179.003 44.9017 178.539 47.271 178.109 49.648C175.916 49.1085 173.844 47.9965 172.125 46.6229C168.751 43.9264 164.198 48.9069 167.564 51.6392C170.202 53.7685 173.381 55.4516 176.75 56.24C176.101 59.1311 175.515 60.3156 175.324 60.6866C174.525 62.3496 175.079 63.7756 176.597 64.6953C177.915 65.4981 179.478 64.4457 179.83 63.1368C180.819 59.3455 180.419 60.532 181.266 56.7105C182.28 56.6637 183.275 56.5379 184.292 56.3046C189.593 54.9973 192.972 49.7677 190.945 44.4027ZM177.918 34.3891C177.052 33.9066 175.696 33.2827 176.173 32.262C176.657 31.2054 179.193 31.1818 180.108 31.0766C180.408 31.0654 180.716 31.0184 181.052 31.0148C180.833 32.5762 180.649 34.1451 180.438 35.6707C179.557 35.2598 178.712 34.8565 177.918 34.3891ZM183.516 45.035C183.847 45.4043 184.142 45.766 184.38 46.2276C185.413 48.2038 184.292 49.2752 182.673 49.7173C182.927 48.1634 183.225 46.5813 183.516 45.035Z" fill="#771212"/>
</g>
<path d="M123.718 58.1987L128.563 45.0335C128.624 44.9465 128.62 44.8407 128.616 44.735L126.642 34.7079C126.588 34.4134 126.305 34.1912 125.946 34.2259C125.757 34.2754 125.59 34.3664 125.492 34.5819L119.396 50.1029C119.359 50.2314 119.344 50.4014 119.412 50.5259L122.618 58.2615C122.735 58.5747 123.079 58.71 123.393 58.5922C123.537 58.4597 123.639 58.35 123.718 58.1987Z" fill="#FF9595"/>
<path d="M119.845 58.2164C119.845 58.2164 135.346 56.5287 138.821 56.4608C141.426 56.3834 144.965 47.5455 146.626 43.0776C146.8 42.6052 146.547 42.043 146.074 41.8702C145.794 41.7538 145.499 41.8073 145.25 41.9438L119.845 58.2164Z" fill="#FF9595"/>
</g>
<defs>
<clipPath id="clip0">
<rect width="232" height="232" fill="white"/>
</clipPath>
<clipPath id="clip1">
<rect width="186.698" height="198.833" fill="white" transform="translate(21.7628 50.8082)"/>
</clipPath>
<clipPath id="clip2">
<rect width="69.0781" height="119.486" fill="white" transform="translate(-0.640869 209.929) rotate(-48.1821)"/>
</clipPath>
<clipPath id="clip3">
<rect width="9.33488" height="40.14" fill="white" transform="translate(62.8367 117.086)"/>
</clipPath>
<clipPath id="clip4">
<rect width="25.1964" height="52.3819" fill="white" transform="translate(173.786 10.6682) rotate(11.9609)"/>
</clipPath>
</defs>
</svg>
